<?xml version="1.0" encoding="UTF-8" standalone="no"?>
<svg width="100%" height="100%" viewBox="0 0 900 900" version="1.1" xmlns="http://www.w3.org/2000/svg" xmlns:xlink="http://www.w3.org/1999/xlink" xml:space="preserve" style="fill-rule:evenodd;clip-rule:evenodd;stroke-linejoin:round;stroke-miterlimit:2;">
    <rect width="900" height="900" rx="180" fill="#ffffff"/>
    <g transform="matrix(1.138756,0,0,1.138756,-102.025928,-88.40947)">
        <path d="M548.933,802.502C548.781,799.525 548.879,788.433 539.149,778.856C529.09,768.957 520.896,771.443 522.382,766.468C531.645,735.47 530.6,688.762 531.039,684.432C531.609,678.823 549.802,685.557 600.614,666.89C603.697,665.757 602.942,668.384 603.309,694.505C604.468,777.037 616.011,793.256 626.074,813.596C627.134,815.739 624.805,814.986 586.498,815.072C547.815,815.159 546.869,815.001 546.956,813.537C547.195,809.488 548.479,809.73 548.933,802.502Z" style="fill:rgb(92,51,25);"/>
        <g transform="matrix(0.878151,0,0,0.878151,89.594196,77.636887)">
            <path d="M598.183,472.139C577.189,503.893 580.525,507.223 580.837,578.334C580.854,582.09 574.994,583.754 570.197,585.797C534.994,600.794 504.388,602.595 503.151,601.157C502.433,600.323 503.203,537.271 502.907,520.263C502.511,497.526 486.828,475.029 481.119,468.025C526.665,488.714 574.797,476.611 598.183,472.139Z" style="fill:rgb(92,51,25);"/>
        </g>
        <g transform="matrix(0.878151,0,0,0.878151,89.594196,77.636887)">
            <path d="M481.119,468.025C480.093,466.765 479.389,466.006 479.154,465.837C472.207,460.832 469.112,472.968 422.164,454.75C421.964,454.657 420.353,454.121 417.972,452.806C412.016,449.513 433.629,439.261 435.51,400.665C437.839,352.889 415.023,360.757 383.654,360.238C361.369,359.868 359.448,362.373 352.464,353.199C331.901,326.19 315.484,328.979 315.014,323.276C312.485,292.558 324.943,272.105 327.289,268.253C331.376,261.543 327.393,260.964 327.256,245.81C326.821,197.712 358.987,163.523 378.229,150.57C406.504,131.536 423.969,134.136 426.446,129.427C470.613,45.448 553.06,52.088 588.922,75.687C620.063,96.178 620.449,120.004 626.119,121.019C694.539,133.262 710.425,205.845 703.418,245.775C702.51,250.954 715.003,254.575 728.402,280.134C768.204,356.061 712.142,446.401 643.334,462.354C609.401,470.221 605.414,461.252 598.787,471.228C598.583,471.534 598.382,471.838 598.183,472.139C574.797,476.611 526.665,488.714 481.119,468.025Z" style="fill:rgb(42,111,53);"/>
        </g>
        <path d="M313.085,448.48C306.956,543.198 242.942,445.993 247.333,426.467C248.242,422.427 250.079,414.258 286.776,392.953C364.984,347.549 386.031,398.491 393.839,404.01C407.84,413.906 450.568,404.855 455.039,410.881C457.803,414.606 464.694,455.122 431.236,474.061C405.147,488.83 388.179,483.982 391.185,507.547C393.344,524.479 418.556,562.203 428.997,598.341C429.896,601.454 480.507,635.723 563.471,616.38C606.348,606.383 619.629,588.815 634.193,603.798C636.335,606.002 644.892,618.371 635.099,631.183C622.423,647.764 546.5,676.742 468.494,668.569C458.936,667.567 457.527,670.069 451.213,662.751C409.752,614.699 337.648,633.298 321.84,679.6C320.454,683.659 325.798,686.323 329.042,683.057C329.288,682.808 358.156,638.515 410.413,653.792C448.95,665.057 475.783,719.639 448.009,769.23C444.72,775.103 437.187,781.665 442.486,781.641C512.403,781.325 521.049,779.351 530.097,791.806C535.238,798.883 536.633,814.994 527.501,815.041C507.901,815.141 508.01,814.371 282.5,814.876C229.194,814.995 219.818,785.931 235.51,785.814C246.464,785.732 246.269,787.846 266.504,788.24C272.281,788.352 283.613,789.628 277.816,786.187C263.045,777.417 225.717,735.403 233.34,665.482C239.333,610.516 265.64,528.498 266.849,492.549C267.039,486.906 270.614,496.767 286.572,502.277C307.347,509.448 333.54,486.432 321.701,435.454C320.333,429.565 317.816,415.039 313.822,418.818C312.554,420.018 312.945,427.708 312.985,428.484C313.519,438.981 313.127,446.025 313.085,448.48Z" style="fill:rgb(222,83,26);"/>
        <g transform="matrix(1,0,0,1,-19.052368,9.137816)">
            <path d="M651.536,295.42C683.553,312.663 650.026,354.758 625.693,333.294C608.931,318.509 621.554,284.415 651.536,295.42Z" style="fill:rgb(222,83,26);"/>
        </g>
        <g transform="matrix(1,0,0,1,20.615152,9.673517)">
            <path d="M450.53,255.545C478.376,239.765 498.015,274.398 479.075,291.072C455.433,311.886 423.311,274.676 450.53,255.545Z" style="fill:rgb(222,83,26);"/>
        </g>
        <g transform="matrix(1,0,0,1,-31.163239,0)">
            <path d="M628.102,242.418C615.849,281.238 566.238,252.273 587.897,223.839C598.227,210.278 631.147,212.405 628.102,242.418Z" style="fill:rgb(222,83,26);"/>
        </g>
        <g transform="matrix(1,0,0,1,-45.252258,15.370552)">
            <path d="M646.212,391.419C656.739,363.84 689.679,374.907 690.834,395.48C692.619,427.241 639.506,430.267 646.212,391.419Z" style="fill:rgb(222,83,26);"/>
        </g>
        <g transform="matrix(1,0,0,1,24.360211,-2.348438)">
            <path d="M483.967,368.533C490.841,338.872 521.106,346.776 527.067,361.69C540.014,394.08 485.277,408.17 483.967,368.533Z" style="fill:rgb(222,83,26);"/>
        </g>
    </g>
</svg>
