<svg xmlns="http://www.w3.org/2000/svg" viewBox="0 0 96 96" fill="none">
  <rect width="96" height="96" rx="20" fill="#faf7f2"/>

  <!-- Tronco del madroño -->
  <rect x="58" y="46" width="8" height="32" rx="2" fill="#5a3f2a"/>

  <!-- Copa del madroño -->
  <g fill="#2a6f35">
    <circle cx="62" cy="28" r="16"/>
    <circle cx="76" cy="34" r="10"/>
    <circle cx="48" cy="34" r="10"/>
    <circle cx="68" cy="16" r="9"/>
    <circle cx="56" cy="18" r="9"/>
  </g>

  <!-- Frutos rojos del madroño -->
  <g fill="#c8252b">
    <circle cx="56" cy="22" r="2.6"/>
    <circle cx="65" cy="28" r="2.6"/>
    <circle cx="48" cy="36" r="2.6"/>
    <circle cx="72" cy="26" r="2.6"/>
    <circle cx="60" cy="38" r="2.6"/>
    <circle cx="73" cy="14" r="2.4"/>
    <circle cx="52" cy="14" r="2.4"/>
    <circle cx="68" cy="40" r="2.4"/>
  </g>

  <!-- Perro: silueta naranja sentada, abrazando el tronco -->
  <g fill="#d9641a">
    <!-- Cola curvada hacia arriba -->
    <path d="M 14 46 Q 6 42 10 30 Q 12 22 18 24 L 18 32 Q 14 38 18 44 Z"/>
    <!-- Cuerpo (sentado, tipo pera) -->
    <ellipse cx="26" cy="56" rx="14" ry="20"/>
    <!-- Pata trasera apoyada -->
    <ellipse cx="20" cy="76" rx="8" ry="5"/>
    <!-- Cabeza -->
    <ellipse cx="34" cy="30" rx="13" ry="12"/>
    <!-- Hocico hacia el tronco -->
    <ellipse cx="46" cy="32" rx="7" ry="5"/>
    <!-- Oreja caída hacia atrás -->
    <path d="M 24 18 Q 18 16 18 26 Q 22 30 28 26 Z"/>
    <!-- Pata delantera "abrazando" el tronco -->
    <path d="M 36 48 Q 38 44 44 44 L 60 44 Q 64 44 64 48 L 64 56 Q 62 60 56 60 L 38 60 Q 34 56 36 48 Z"/>
  </g>

  <!-- Detalle nariz y ojo -->
  <circle cx="51" cy="32" r="1.8" fill="#1a1a1a"/>
  <circle cx="38" cy="28" r="1.4" fill="#1a1a1a"/>
</svg>
